<svg xmlns="http://www.w3.org/2000/svg" width="114" height="40" fill="none" viewBox="0 0 114 40"><rect width="113.571" height="40" fill="#e5ecf4" rx="4"/><path fill="#495567" fill-rule="evenodd" d="M67.487 30.7a5 5 0 0 1-1.514.214q-.986 0-1.736-.278a3.5 3.5 0 0 1-1.25-.772 3.26 3.26 0 0 1-.757-1.157 4 4 0 0 1-.257-1.45v-.429h1.885v.343q0 .9.522 1.436t1.621.536q.857 0 1.272-.372.414-.371.414-.885 0-.243-.086-.465a1 1 0 0 0-.3-.4 2.1 2.1 0 0 0-.585-.321 5 5 0 0 0-.943-.243 9.5 9.5 0 0 1-1.386-.336 3.9 3.9 0 0 1-1.093-.55 2.4 2.4 0 0 1-.721-.857q-.257-.515-.257-1.257v-.086q0-.615.25-1.135.25-.521.7-.908.45-.386 1.085-.6a4.4 4.4 0 0 1 1.422-.214q.885 0 1.571.25t1.15.679q.465.428.7.985.236.558.236 1.172v.514h-1.886v-.343q0-.6-.464-1.043-.465-.442-1.307-.442-.715 0-1.129.292a.92.92 0 0 0-.414.793q0 .258.1.465a.95.95 0 0 0 .35.371q.25.164.657.293t1.036.243q1.57.286 2.4.957.828.672.828 1.986v.171q0 .7-.25 1.264a2.7 2.7 0 0 1-.721.965 3.3 3.3 0 0 1-1.143.614m-28.158.014.486-2.143h3.4l.485 2.143h1.972l-2.386-10h-3.543l-2.386 10zm3.471-3.943h-2.585l1.171-5.114h.257zm4.991 2.915v3.885h-1.8v-9.943h1.8v1.029h.257q.285-.585.829-.907.543-.321 1.386-.322.628 0 1.192.243.565.243.986.707.422.465.671 1.136.25.672.25 1.529v.257q0 .87-.242 1.543a3.4 3.4 0 0 1-.657 1.135q-.415.465-.979.7a3.1 3.1 0 0 1-1.221.236 3.2 3.2 0 0 1-.843-.1 2.3 2.3 0 0 1-.622-.271 1.9 1.9 0 0 1-.443-.393 3 3 0 0 1-.307-.464zm1.886-.486q-.843 0-1.364-.536-.522-.535-.522-1.407v-.171q0-.871.522-1.408.52-.535 1.364-.535.843 0 1.364.521.522.522.522 1.422v.171q0 .9-.522 1.421-.52.522-1.364.522m6.22.486v3.885h-1.8v-9.943h1.8v1.029h.256q.285-.585.829-.907.543-.321 1.386-.322.628 0 1.192.243.565.243.986.707.422.465.672 1.136.25.672.25 1.529v.257q0 .87-.243 1.543a3.4 3.4 0 0 1-.657 1.135q-.415.465-.979.7a3.1 3.1 0 0 1-1.221.236 3.2 3.2 0 0 1-.843-.1 2.3 2.3 0 0 1-.622-.271 1.9 1.9 0 0 1-.442-.393 3 3 0 0 1-.308-.464zm1.885-.486q-.843 0-1.364-.536-.522-.535-.522-1.407v-.171q0-.871.522-1.408.52-.535 1.364-.535.843 0 1.364.521.522.522.522 1.422v.171q0 .9-.522 1.421-.52.522-1.364.522m18.896 1.514V29h-1.915q-.385 0-.385-.429v-3.228h2.557v-1.715h-2.557v-2.914h-1.8v2.914h-2.1v1.715h2.1V29.6q0 .486.307.8t.793.314zm6.755-.043a4 4 0 0 1-1.393.243q-.729 0-1.393-.243a3.6 3.6 0 0 1-1.178-.707 3.3 3.3 0 0 1-.815-1.143q-.3-.678-.3-1.564v-.171q0-.872.3-1.55.3-.68.815-1.15a3.5 3.5 0 0 1 1.178-.715 4 4 0 0 1 1.393-.243q.729 0 1.393.243.665.243 1.178.715.515.47.815 1.15.3.678.3 1.55v.171q0 .885-.3 1.564-.3.68-.814 1.143a3.6 3.6 0 0 1-1.18.707M82.04 29.2q-.386 0-.729-.129a1.8 1.8 0 0 1-.6-.371 1.8 1.8 0 0 1-.407-.593q-.15-.35-.15-.793v-.286q0-.443.15-.792t.407-.593.6-.372q.344-.128.73-.128.385 0 .728.128.342.129.6.372t.407.593.15.792v.286q0 .443-.15.793t-.407.593a1.8 1.8 0 0 1-.6.371 2 2 0 0 1-.729.129m9.22-.2v1.714h-4.886V29h1.457v-3.657h-1.286v-1.715h3v1.029h.257q.2-.585.679-.907.478-.321 1.15-.322 1.057 0 1.7.665.642.664.643 2.021v.314l-1.857.172v-.2q0-.585-.3-.936-.3-.35-.9-.35t-.943.414-.343 1.186V29zm7.062 1.914q.699 0 1.221-.157t.886-.4.593-.536q.228-.292.357-.564l-1.543-.857a1.4 1.4 0 0 1-.514.564q-.357.236-1.029.236-.342 0-.65-.107a1.8 1.8 0 0 1-.543-.3 1.392 1.392 0 0 1-.522-1.036h5.201V26.8q0-.558-.2-1.15a3.2 3.2 0 0 0-.629-1.086 3.4 3.4 0 0 0-1.085-.814q-.657-.321-1.572-.322-.743 0-1.393.265a3.37 3.37 0 0 0-1.9 1.879 3.8 3.8 0 0 0-.278 1.485v.086q0 .886.264 1.585.264.7.743 1.186t1.136.743 1.457.257m-1.715-4.7h3.343q-.085-.5-.535-.828-.45-.33-1.136-.329-.686 0-1.114.35t-.558.807M51.826 9.604a.66.66 0 0 1-.526 0 .7.7 0 0 1-.214-.143.673.673 0 0 1-.2-.482.673.673 0 0 1 .94-.625.7.7 0 0 1 .217.143q.093.089.147.214a.7.7 0 0 1 .053.268.67.67 0 0 1-.2.482.7.7 0 0 1-.218.143M38.479 12.5l-.243 1.072h-.986l1.193-5h1.771l1.193 5h-.986L40.18 12.5zm.2-.9h1.292l-.578-2.557h-.129zm5.552 1.972 1.014-3.543h-.971l-.836 3.114h-.128l-.836-3.114h-.971l1.014 3.543zm3.467-.04a1.24 1.24 0 0 1-.6.14q-.322 0-.604-.122a1.4 1.4 0 0 1-.496-.357 1.7 1.7 0 0 1-.34-.571 2.2 2.2 0 0 1-.124-.765v-.114q0-.42.121-.757.121-.336.329-.571.206-.237.482-.361.275-.125.59-.125.378 0 .61.128.232.13.368.4h.128v-.428h.9V12.5q0 .215.193.215h.136v.857h-.614a.56.56 0 0 1-.397-.143.48.48 0 0 1-.154-.372h-.128q-.143.337-.4.475m-.4-.717a.8.8 0 0 1-.629-.261q-.235-.26-.235-.71v-.087q0-.45.235-.71a.8.8 0 0 1 .629-.261q.393 0 .628.26.236.262.236.711v.086q0 .45-.236.71a.8.8 0 0 1-.628.262m5.752-.1h-1.028v-2.686h-2.014v.857h1.114v1.829h-1.2v.857h3.129zm2.982 0h1.157v.857h-3.3v-.857h1.243V9.429h-1.2v-.857h2.1zm3.224.957q.342 0 .6-.14.256-.138.4-.475h.128q0 .23.154.372a.56.56 0 0 0 .396.143h.614v-.857h-.135q-.193 0-.193-.215V10.03h-.9v.428h-.129a.9.9 0 0 0-.367-.4q-.233-.128-.611-.128a1.4 1.4 0 0 0-1.072.486 1.8 1.8 0 0 0-.328.571 2.2 2.2 0 0 0-.122.757v.114q0 .428.125.765.126.335.34.571t.496.357q.282.122.604.122m-.429-1.118q.236.26.629.26a.8.8 0 0 0 .628-.26q.236-.26.236-.71v-.087q0-.45-.236-.71a.8.8 0 0 0-.628-.261.8.8 0 0 0-.629.26q-.236.262-.236.711v.086q0 .45.236.71m5.174 1.118q.33 0 .61-.118.283-.118.49-.35t.329-.568q.12-.335.121-.771v-.129q0-.428-.125-.764a1.7 1.7 0 0 0-.336-.568 1.4 1.4 0 0 0-.493-.354 1.5 1.5 0 0 0-.596-.121q-.42 0-.693.16-.27.162-.414.454h-.129V8.572h-.9v5h.9v-.515h.129q.065.122.153.233.09.11.222.196.133.085.31.136.18.05.422.05m-.975-1.125q.26.268.682.268.421 0 .682-.261.261-.26.261-.71v-.087q0-.45-.26-.71-.262-.261-.683-.261-.42 0-.682.268-.26.268-.26.703v.086q0 .435.26.704m6.32.168H68.19V8.572h-2.1v.857h1.2v3.286h-1.243v.857h3.3zm3.05.878a2.1 2.1 0 0 1-.611.079q-.4 0-.729-.129a1.61 1.61 0 0 1-.94-.964 2.2 2.2 0 0 1-.131-.793v-.043q0-.407.139-.743a1.68 1.68 0 0 1 .95-.939 1.8 1.8 0 0 1 .696-.132q.457 0 .786.16.33.161.543.408.215.246.314.543.1.296.1.575v.478h-2.6a.7.7 0 0 0 .261.518.9.9 0 0 0 .271.15 1 1 0 0 0 .325.054q.336 0 .515-.118a.7.7 0 0 0 .257-.282l.771.428a1.5 1.5 0 0 1-.178.282 1.3 1.3 0 0 1-.297.268q-.182.122-.443.2m.203-2.271h-1.671a.8.8 0 0 1 .278-.404q.215-.175.557-.175t.568.164.268.415m7.951 2.228q-.33.122-.696.122-.364 0-.696-.122a1.8 1.8 0 0 1-.59-.353 1.7 1.7 0 0 1-.407-.572q-.15-.34-.15-.782v-.086q0-.435.15-.775a1.7 1.7 0 0 1 .997-.932q.332-.12.696-.121.364 0 .697.121.33.121.589.357.257.237.407.575.15.34.15.775v.086q0 .443-.15.782-.15.34-.407.572a1.8 1.8 0 0 1-.59.353m-.696-.735a1 1 0 0 1-.364-.065.878.878 0 0 1-.504-.482 1 1 0 0 1-.075-.396v-.143q0-.222.075-.397a.88.88 0 0 1 .504-.482q.172-.064.364-.064.193 0 .364.064a.878.878 0 0 1 .504.482q.075.176.075.397v.143q0 .221-.075.396a.88.88 0 0 1-.504.482 1 1 0 0 1-.364.065m3.324-1.086v1.843h-.9v-3.543h.9v.528h.129a.94.94 0 0 1 .392-.464q.272-.165.636-.164.257 0 .482.082.225.083.397.254.17.172.268.435.096.265.096.629v2.243h-.9v-2.015q0-.377-.182-.596-.181-.218-.525-.218-.4 0-.597.268-.195.268-.196.718m10.205.986h-.957q-.193 0-.193-.215v-1.614h1.279v-.857h-1.279V8.572h-.9v1.457h-1.05v.857h1.05v2.129q0 .243.154.4a.53.53 0 0 0 .396.157h1.5zm1.967-.986v1.843h-.9v-5h.9V10.6h.129q.135-.322.4-.496.263-.175.65-.175.264 0 .485.086t.386.257q.164.17.257.439t.093.632v2.229h-.9v-2.015q0-.377-.182-.596-.183-.218-.525-.218-.4 0-.597.268t-.196.718m4.803 1.943q.35 0 .61-.079.261-.078.443-.2.182-.12.297-.268.114-.146.178-.282l-.771-.428a.7.7 0 0 1-.257.282q-.179.117-.515.118a1 1 0 0 1-.325-.054.9.9 0 0 1-.271-.15.696.696 0 0 1-.26-.518h2.599v-.478q0-.28-.1-.575a1.6 1.6 0 0 0-.314-.543 1.7 1.7 0 0 0-.543-.407 1.8 1.8 0 0 0-.786-.161q-.371 0-.696.132-.325.131-.568.368-.244.236-.382.571-.14.336-.14.743v.043q0 .443.133.793.132.349.371.593.24.243.568.371.328.129.729.129m-.858-2.35h1.672a.64.64 0 0 0-.268-.415.94.94 0 0 0-.568-.164q-.342 0-.557.175a.8.8 0 0 0-.279.404M21.107 11.595c.706-.862 1.917-1.524 2.953-1.595.173 1.178-.306 2.332-.94 3.147-.678.876-1.848 1.553-2.98 1.518-.206-1.128.324-2.289.967-3.07m3.19 3.072c1.38 0 2.84.745 3.878 2.03-3.406 1.853-2.854 6.68.587 7.973-.473 1.04-.7 1.505-1.31 2.427-.851 1.286-2.05 2.89-3.537 2.9-.612.007-1.013-.176-1.446-.373-.501-.228-1.045-.475-2.007-.47-.956.005-1.509.25-2.017.474-.444.196-.854.378-1.47.372-1.487-.013-2.623-1.459-3.474-2.745-2.378-3.595-2.63-7.815-1.162-10.06 1.044-1.594 2.69-2.526 4.236-2.526.824 0 1.488.235 2.12.459.577.204 1.127.398 1.748.398.575 0 1.048-.177 1.563-.371.619-.233 1.299-.488 2.292-.488" clip-rule="evenodd"/></svg>