<svg xmlns="http://www.w3.org/2000/svg" width="130" height="40" fill="none" viewBox="0 0 130 40"><rect width="130" height="40" fill="#e5ecf4" rx="4"/><path fill="#495567" fill-rule="evenodd" d="M42.514 30.536q-.486.378-1.457.378a3.2 3.2 0 0 1-1.285-.257 2.9 2.9 0 0 1-1.043-.764 3.7 3.7 0 0 1-.7-1.257q-.258-.75-.258-1.75v-2.343q0-.972.28-1.722.278-.75.77-1.264a3.2 3.2 0 0 1 1.18-.779 4.2 4.2 0 0 1 1.513-.264q.858 0 1.529.279.67.278 1.143.771.471.493.714 1.157.243.665.243 1.422v.171h-1.886v-.171q0-.9-.464-1.365-.465-.465-1.307-.464-.801 0-1.314.536-.515.535-.515 1.836V26.8q0 2.314 1.886 2.314.843 0 1.279-.45t.435-1.207h-2.4v-1.8h4.286v5.057h-1.714V29.6h-.258a1.86 1.86 0 0 1-.657.936m8.498.135a4 4 0 0 1-1.393.243q-.728 0-1.392-.243a3.6 3.6 0 0 1-1.179-.707 3.3 3.3 0 0 1-.814-1.143q-.3-.678-.3-1.564v-.171q0-.872.3-1.55.3-.68.814-1.15a3.5 3.5 0 0 1 1.179-.715 4 4 0 0 1 1.392-.243q.729 0 1.393.243t1.179.715q.514.47.814 1.15.3.678.3 1.55v.171q0 .885-.3 1.564-.3.68-.814 1.143a3.6 3.6 0 0 1-1.179.707M49.62 29.2q-.386 0-.728-.129a1.8 1.8 0 0 1-.6-.371 1.8 1.8 0 0 1-.407-.593q-.15-.35-.15-.793v-.286q0-.443.15-.792t.407-.593q.256-.243.6-.372.342-.128.728-.128t.729.128q.344.129.6.372.257.243.407.593t.15.792v.286q0 .443-.15.793t-.407.593a1.8 1.8 0 0 1-.6.371 2 2 0 0 1-.729.129m9.498 1.471a4 4 0 0 1-1.392.243q-.729 0-1.393-.243a3.6 3.6 0 0 1-1.179-.707 3.3 3.3 0 0 1-.814-1.143q-.3-.678-.3-1.564v-.171q0-.872.3-1.55.3-.68.814-1.15a3.5 3.5 0 0 1 1.179-.715 4 4 0 0 1 1.392-.243q.729 0 1.393.243t1.179.715q.514.47.814 1.15.3.678.3 1.55v.171q0 .885-.3 1.564-.3.68-.814 1.143a3.6 3.6 0 0 1-1.179.707M57.725 29.2q-.386 0-.729-.129a1.8 1.8 0 0 1-.6-.371 1.8 1.8 0 0 1-.407-.593q-.15-.35-.15-.793v-.286q0-.443.15-.792t.407-.593.6-.372.728-.128.73.128.6.372q.255.243.406.593.15.35.15.792v.286q0 .443-.15.793t-.407.593a1.8 1.8 0 0 1-.6.371 2 2 0 0 1-.729.129m11.398 4.057q-.308.315-.793.314h-4.772v-1.714h3.686q.386 0 .386-.429v-1.742h-.257a2.7 2.7 0 0 1-.28.464 1.6 1.6 0 0 1-.428.393 2.2 2.2 0 0 1-.628.271q-.364.1-.879.1-.657 0-1.221-.236a2.75 2.75 0 0 1-.986-.7q-.42-.465-.657-1.135-.236-.672-.236-1.543v-.257q0-.857.25-1.529a3.3 3.3 0 0 1 .686-1.136q.436-.465 1.014-.707a3.1 3.1 0 0 1 1.222-.243q.856 0 1.357.322.5.322.785.907h.258v-1.029h1.8v8.829q0 .486-.308.8m-3.38-4.057q-.842 0-1.363-.522-.522-.52-.522-1.421v-.171q0-.9.522-1.422.52-.522 1.364-.521.843 0 1.364.535.522.537.522 1.408v.171q0 .872-.522 1.407-.52.536-1.364.536m11.492-.2v1.714h-6.6V29h2.486v-6.572h-2.4v-1.714h4.2V29zm4.876 1.914q.7 0 1.222-.157.521-.157.885-.4.364-.242.593-.536.23-.292.357-.564l-1.542-.857a1.4 1.4 0 0 1-.515.564q-.356.236-1.028.236-.343 0-.65-.107a1.8 1.8 0 0 1-.543-.3 1.389 1.389 0 0 1-.522-1.036h5.2V26.8q0-.558-.2-1.15a3.2 3.2 0 0 0-.628-1.086 3.4 3.4 0 0 0-1.086-.814q-.657-.321-1.571-.322-.743 0-1.393.265a3.37 3.37 0 0 0-1.9 1.879 3.8 3.8 0 0 0-.279 1.485v.086q0 .886.265 1.585.264.7.742 1.186.48.486 1.136.743.657.257 1.457.257m-1.714-4.7h3.343q-.086-.5-.536-.828-.45-.33-1.136-.329-.685 0-1.114.35-.428.35-.557.807m8.29 4.5v-3.771h2.03q.77 0 1.342-.257a2.8 2.8 0 0 0 .95-.679q.379-.42.572-.957t.192-1.093v-.343q0-.543-.192-1.064a2.8 2.8 0 0 0-.572-.929 2.8 2.8 0 0 0-.95-.657q-.57-.25-1.343-.25h-3.914v10zm0-5.571h1.844q.629 0 .992-.343.365-.343.365-.886v-.171q0-.543-.365-.886-.363-.343-.992-.343h-1.843zm12.863 5.571V29h-2.314v-8.286h-4.2v1.714h2.4V29H94.95v1.714zm5.334-.078q-.515.278-1.2.278-.643 0-1.207-.243a2.84 2.84 0 0 1-.993-.714 3.5 3.5 0 0 1-.679-1.143q-.25-.672-.25-1.528v-.229q0-.843.243-1.514.243-.672.657-1.143a2.8 2.8 0 0 1 .964-.722q.55-.25 1.179-.25.757 0 1.221.258.465.257.736.8h.257v-.858h1.8v4.943q0 .429.386.429h.271v1.714h-1.228q-.486 0-.793-.286a.97.97 0 0 1-.307-.742h-.257q-.286.67-.8.95m-.8-1.436q-.786 0-1.257-.522-.472-.52-.472-1.421v-.171q0-.9.472-1.422.471-.522 1.257-.521.786 0 1.257.521.471.522.471 1.422v.171q0 .9-.471 1.421-.471.522-1.257.522m11.412 4.057q-.307.315-.793.314h-4.214v-1.714h3.128q.386 0 .386-.429v-1.742h-.257q-.47 1.228-2.029 1.228-.528 0-.985-.171a2.1 2.1 0 0 1-.8-.529 2.5 2.5 0 0 1-.536-.893q-.193-.535-.193-1.264v-4.429h1.8v4.058q0 .756.357 1.178t1.072.422q.814 0 1.193-.522.378-.521.378-1.421v-3.715h1.8v8.829q0 .486-.307.8M55.618 9.657q.135 0 .26-.053a.7.7 0 0 0 .218-.143.673.673 0 0 0 .2-.482.67.67 0 0 0-.2-.482.7.7 0 0 0-.218-.143.66.66 0 0 0-.525 0 .7.7 0 0 0-.214.143.673.673 0 0 0-.2.482.673.673 0 0 0 .679.678m-15.79 3.825q-.242.19-.728.19-.343 0-.642-.129a1.44 1.44 0 0 1-.522-.382 1.9 1.9 0 0 1-.35-.629 2.7 2.7 0 0 1-.128-.875v-1.171q0-.485.139-.86t.386-.633.589-.39a2.1 2.1 0 0 1 .757-.131q.428 0 .764.139.335.139.572.386.236.246.357.578.12.333.121.711v.086H40.2v-.086q0-.45-.232-.682t-.653-.232a.87.87 0 0 0-.657.268q-.258.267-.258.917v1.058q0 1.157.943 1.157.421 0 .64-.225.217-.226.217-.604H39v-.9h2.143v2.529h-.857v-.557h-.129a.93.93 0 0 1-.328.467m4.2.111a2.1 2.1 0 0 1-.61.079q-.4 0-.73-.129a1.61 1.61 0 0 1-.939-.964 2.2 2.2 0 0 1-.132-.793v-.043q0-.407.14-.743a1.69 1.69 0 0 1 .95-.939q.324-.132.696-.132.458 0 .786.16.329.161.542.408t.315.543.1.575v.478h-2.6a.7.7 0 0 0 .26.518.9.9 0 0 0 .272.15 1 1 0 0 0 .325.054q.336 0 .514-.118a.7.7 0 0 0 .257-.282l.772.428a1.5 1.5 0 0 1-.179.282 1.3 1.3 0 0 1-.296.268q-.183.122-.443.2m.203-2.271h-1.67a.8.8 0 0 1 .278-.404q.213-.175.557-.175.342 0 .568.164.225.165.267.415m4.575 1.393v.857h-1.5a.53.53 0 0 1-.55-.557v-2.129h-1.05v-.857h1.05V8.572h.9v1.457h1.278v.857h-1.278V12.5q0 .215.192.215zm8.297 0v.857h-3.128v-.857h1.2v-1.829H54.06v-.857h2.014v2.686zm3.86.857v-.857h-.957q-.193 0-.193-.215v-1.614h1.279v-.857h-1.279V8.572h-.9v1.457h-1.05v.857h1.05v2.129q0 .243.154.4a.53.53 0 0 0 .396.157zm7.43-.022q-.332.122-.696.122T67 13.55a1.8 1.8 0 0 1-.589-.353 1.7 1.7 0 0 1-.407-.572q-.15-.34-.15-.782v-.086q0-.435.15-.775A1.7 1.7 0 0 1 67 10.05q.333-.12.697-.121.364 0 .696.121t.59.357q.256.237.407.575.15.34.15.775v.086q0 .443-.15.782-.15.34-.407.572a1.8 1.8 0 0 1-.59.353m-.696-.735a1 1 0 0 1-.365-.065.878.878 0 0 1-.504-.482 1 1 0 0 1-.074-.396v-.143q0-.222.075-.397a.88.88 0 0 1 .504-.482q.17-.064.364-.064.192 0 .364.064a.878.878 0 0 1 .504.482q.075.176.075.397v.143q0 .221-.075.396a.88.88 0 0 1-.504.482 1 1 0 0 1-.364.065m3.324-1.086v1.843h-.9v-3.543h.9v.528h.128a.94.94 0 0 1 .393-.464q.271-.165.636-.164.257 0 .482.082.225.083.397.254.171.172.267.435.097.265.097.629v2.243h-.9v-2.015q0-.377-.182-.596-.183-.218-.525-.218-.4 0-.597.268-.195.268-.196.718M12.395 10.17a1.68 1.68 0 0 1 1.609.076l9.908 5.77-2.838 2.852zm-.966 1.56c0-.266.059-.524.168-.756l8.678 8.697-8.676 8.717a1.7 1.7 0 0 1-.17-.747zm9.647 8.743L12.41 29.18c.23.106.474.153.719.153.301 0 .602-.072.875-.236l9.91-5.779zm6.6-2.265.01.006c.512.31.817.853.817 1.452 0 .6-.305 1.142-.817 1.453l-2.76 1.609-3.051-3.058 3.05-3.065z" clip-rule="evenodd"/></svg>