<svg xmlns="http://www.w3.org/2000/svg" width="96" height="96" fill="none" viewBox="0 0 96 96"><circle cx="48" cy="48" r="48" fill="#fcb72b"/><path fill="#000" d="M45.07 62.301a.83.83 0 0 0-.585.242.83.83 0 0 0-.242.585c0 .217.088.43.242.584a.83.83 0 0 0 .585.243c.217 0 .43-.089.584-.242a.83.83 0 0 0 .243-.585.83.83 0 0 0-.243-.585.83.83 0 0 0-.584-.242"/><path fill="#495567" fill-rule="evenodd" d="m61.54 48.419-1.928-8.706c.52-.07.979-.335 1.301-.718.381.238.83.376 1.312.376h1.654c.456 0 .826-.37.826-.827v-3.307a.827.827 0 0 0-.826-.827h-1.654c-.496 0-.958.147-1.346.398a2.06 2.06 0 0 0-1.546-.698h-4.88c-.878 0-1.628.55-1.927 1.323h-1.96c-1.186 0-2.15.964-2.15 2.15s.965 2.15 2.15 2.15h4.256v1.666a.827.827 0 1 0 1.654 0v-1.666h1.447l2.075 9.378-3.928 6.997a2.43 2.43 0 0 1-2.113 1.234h-9.806c-.411-3.442-3.346-6.121-6.898-6.121a6.88 6.88 0 0 0-4.287 1.48l-.005.004a6.9 6.9 0 0 0-2.607 4.637h-1.698c.108-5.944 4.977-10.746 10.946-10.746h5.866c.463 0 .84.377.84.84v7.426c0 .456.37.826.826.826h4.4a4.93 4.93 0 0 0 4.932-4.926l.004-2.747a.827.827 0 0 0-1.654-.003l-.004 2.748a3.279 3.279 0 0 1-3.278 3.274h-3.573v-6.599a2.5 2.5 0 0 0-.293-1.172 2.48 2.48 0 0 0 1.244-2.15 2.483 2.483 0 0 0-2.48-2.48h-3.019c-.29 0-.568.05-.827.142v-7.253a2.483 2.483 0 0 0-2.48-2.48H34.77c-3.867 0-7.082 2.838-7.674 6.541a.8.8 0 0 0-.038.25v.014a8 8 0 0 0-.059.966v4.3c0 1.243.918 2.275 2.11 2.454l1.832 1.83A12.57 12.57 0 0 0 27 57.545v.625c0 .457.37.827.827.827h4.647a1 1 0 0 0-.017.165c0 1.2.444 2.298 1.176 3.14h-5.806a.827.827 0 0 0 0 1.654h9.358q.034.002.068.002a4.8 4.8 0 0 0 4.796-4.796 1 1 0 0 0-.016-.165h11.924a4.09 4.09 0 0 0 3.281-1.656h1.047A4.772 4.772 0 0 0 59.1 62.3H48.378a.827.827 0 0 0 0 1.654h14.248l.096.002a4.8 4.8 0 0 0 4.796-4.796 4.8 4.8 0 0 0-.36-1.821h1.352c.457 0 .827-.37.827-.827 0-4.365-3.47-7.934-7.797-8.094m-18.127-5.132h3.018a.828.828 0 0 1 0 1.654h-3.018a.828.828 0 0 1 0-1.654m-14.757-3.576-.002.102v4.3c0 .457.37.828.826.828h10.625a.83.83 0 0 0 .827-.827v-9.592a.83.83 0 0 0-.827-.827h-5.334a6.13 6.13 0 0 0-5.845 4.311h8.78a.827.827 0 1 1 0 1.654h-9.048zm2.821 6.884h1.892q-.595.34-1.15.742zm5.808 15.708a3.145 3.145 0 0 0 3.11-3.142 1 1 0 0 1 .017-.165h-6.317q.015.08.016.165c0 1.701 1.358 3.09 3.047 3.14h.114zm-5.262-4.96a5.26 5.26 0 0 1 1.96-3.338L33.99 54a5.24 5.24 0 0 1 3.263-1.125 5.3 5.3 0 0 1 5.23 4.467zm31.029-21.28h-.827a.828.828 0 0 0 0 1.655h.827zm-12.982 1.52c0-.274.222-.496.496-.496h1.822v.58q0 .213.04.412h-1.862a.497.497 0 0 1-.496-.496m4.382.496h4.881c.227 0 .411-.184.411-.411v-1.494a.41.41 0 0 0-.41-.41h-4.882a.41.41 0 0 0-.41.41v1.494c0 .227.184.41.41.41M65.863 59.16a3.145 3.145 0 0 1-3.11 3.142h-.007l-.007-.001-.018-.001h-.095a3.145 3.145 0 0 1-3.047-3.14c0-.657.205-1.292.582-1.821h5.12c.377.53.582 1.164.582 1.821m-4.507-9.091-3.153 5.616h9.426a6.454 6.454 0 0 0-6.273-5.616" clip-rule="evenodd"/><path fill="#000" d="M55.649 45.533a.827.827 0 1 0 0-1.653h-.003a.826.826 0 1 0 .003 1.653"/></svg>